<svg width="45" height="47" viewBox="0 0 45 47" fill="none" xmlns="http://www.w3.org/2000/svg">
<path d="M40.1528 18.1958C40.1431 15.7546 39.3012 13.3882 37.7669 11.4898C38.287 9.31838 38.1245 7.0397 37.2988 4.96589C37.1363 4.56607 36.8047 4.26051 36.3919 4.13374C35.8101 3.93546 33.6029 3.55838 29.1106 6.47092C27.1798 5.96058 25.1839 5.72004 23.1848 5.75579C21.1857 5.72003 19.1898 5.96057 17.2525 6.47092C12.6431 3.4934 10.2442 3.97447 9.76309 4.11752C9.35027 4.25079 9.0187 4.56285 8.85621 4.96589C8.03056 7.03329 7.86154 9.3054 8.37513 11.4736C6.78888 13.3621 5.94042 15.7643 5.99567 18.2316C5.99567 27.4343 11.2616 30.2129 16.0888 31.1948C15.8418 31.8027 15.6695 32.4365 15.5817 33.0834C15.572 33.1516 15.572 33.2231 15.5817 33.2914V35.8399C11.187 36.2072 10.2475 33.636 10.1565 33.3434C10.1338 33.2752 10.1078 33.2069 10.0785 33.1419C9.23014 31.4093 7.73809 30.0798 5.91776 29.4395C5.15712 29.1827 4.33151 29.5955 4.07471 30.3594C3.82116 31.1233 4.23399 31.9457 4.99465 32.2025C6.00231 32.5665 6.84428 33.2849 7.3578 34.2243C7.93966 36.1129 10.3191 39.1002 15.5623 38.7686V41.1643H15.5656C15.5656 41.9672 16.2157 42.6206 17.0218 42.6206C17.8247 42.6206 18.4781 41.9672 18.4781 41.1643V33.4019C18.5886 32.5535 18.9559 31.7603 19.5345 31.1297C19.9473 30.7429 20.0969 30.1513 19.9181 29.615C19.7393 29.0754 19.2647 28.695 18.7024 28.6333C13.6249 28.0417 8.9346 26.3708 8.9346 18.1731H8.93135C8.86308 16.1708 9.63673 14.2334 11.0637 12.8291C11.4473 12.4131 11.5773 11.8215 11.3953 11.2818C10.9045 9.85812 10.8719 8.31406 11.3043 6.87078C13.0888 7.27386 14.7694 8.0605 16.2225 9.17542C16.5995 9.42572 17.0708 9.49073 17.5032 9.35096C19.3528 8.7886 21.2804 8.52856 23.2113 8.57731C25.1421 8.52855 27.0665 8.7886 28.9128 9.35096C29.3419 9.49399 29.8165 9.42897 30.1936 9.17542C31.5946 8.10269 33.1939 7.3258 34.9038 6.88701C35.3263 8.34652 35.2906 9.90355 34.7965 11.3403C34.6307 11.8279 34.738 12.3676 35.0793 12.7543C36.4575 14.2268 37.2377 16.1577 37.2669 18.1731C37.2669 26.3515 32.3325 28.0515 27.4991 28.6332C26.9043 28.6982 26.4134 29.1208 26.2606 29.6961C26.1046 30.2715 26.3191 30.8826 26.8002 31.2369C27.3171 31.627 27.9152 32.7257 27.9152 34.5655V41.1577V41.1545C27.9152 41.9606 28.5653 42.6108 29.3714 42.6108C30.1743 42.6108 30.8277 41.9606 30.8277 41.1545V34.5655C30.8407 33.4051 30.6294 32.2544 30.2036 31.1784C34.114 30.3463 40.1536 27.7751 40.1536 18.1952L40.1528 18.1958Z" fill="white"/>
</svg>
