<svg width="58" height="62" viewBox="0 0 58 62" fill="none" xmlns="http://www.w3.org/2000/svg">
<g clip-path="url(#clip0_109_10)">
<path d="M57.9267 22.7455C57.9111 18.834 56.5622 15.0424 54.1038 12.0007C54.9371 8.52149 54.6767 4.87042 53.3538 1.54762C53.0934 0.906997 52.5621 0.41741 51.9007 0.21429C50.9684 -0.103417 47.4319 -0.707588 40.234 3.95909C37.1403 3.14139 33.9423 2.75597 30.7392 2.81325C27.5362 2.75596 24.3382 3.14137 21.234 3.95909C13.8486 -0.811708 10.0048 -0.0409086 9.23404 0.188291C8.57259 0.401838 8.04133 0.901837 7.78097 1.54762C6.45805 4.86016 6.18724 8.50069 7.01015 11.9747C4.46855 15.0007 3.10908 18.8496 3.19762 22.8028C3.19762 37.5482 11.6351 42.0002 19.3696 43.5735C18.9738 44.5475 18.6977 45.5631 18.5571 46.5995C18.5415 46.7089 18.5415 46.8235 18.5571 46.9328V51.0162C11.5155 51.6047 10.0102 47.485 9.86444 47.0162C9.82798 46.9068 9.78631 46.7974 9.73944 46.6932C8.38011 43.9172 5.98944 41.787 3.07278 40.761C1.85403 40.3495 0.531176 41.011 0.119709 42.235C-0.286544 43.4589 0.374921 44.7766 1.59371 45.188C3.20824 45.7714 4.55731 46.9224 5.38011 48.4276C6.3124 51.4536 10.1249 56.2402 18.526 55.7088V59.5474H18.5312C18.5312 60.8338 19.5728 61.8807 20.8645 61.8807C22.151 61.8807 23.1979 60.8338 23.1979 59.5474V47.1099C23.3749 45.7506 23.9635 44.4796 24.8905 43.4692C25.552 42.8495 25.7916 41.9015 25.5051 41.0422C25.2187 40.1776 24.4582 39.5682 23.5572 39.4692C15.4218 38.5213 7.90657 35.8442 7.90657 22.7092H7.90136C7.79199 19.501 9.03157 16.3967 11.318 14.1467C11.9326 13.48 12.1409 12.5322 11.8493 11.6675C11.0628 9.38631 11.0107 6.9123 11.7034 4.59977C14.5628 5.24561 17.2556 6.50604 19.5837 8.29244C20.1879 8.69348 20.943 8.79765 21.6358 8.57369C24.5994 7.67265 27.688 7.25598 30.7817 7.3341C33.8754 7.25598 36.9588 7.67265 39.9172 8.57369C40.6047 8.80286 41.365 8.69869 41.9693 8.29244C44.2141 6.57364 46.7766 5.32884 49.5162 4.62577C50.1933 6.9643 50.136 9.4591 49.3444 11.7612C49.0787 12.5425 49.2506 13.4071 49.7975 14.0268C52.0057 16.3862 53.2559 19.4799 53.3027 22.7091C53.3027 35.8132 45.3964 38.5371 37.652 39.4691C36.6989 39.5733 35.9124 40.2504 35.6676 41.1722C35.4176 42.0941 35.7614 43.0732 36.5322 43.641C37.3603 44.266 38.3186 46.0264 38.3186 48.9743V59.5368V59.5316C38.3186 60.8233 39.3603 61.865 40.6519 61.865C41.9384 61.865 42.9853 60.8233 42.9853 59.5316V48.9743C43.0061 47.115 42.6676 45.2712 41.9853 43.5472C48.2509 42.2139 57.9279 38.0942 57.9279 22.7446L57.9267 22.7455Z" fill="white"/>
</g>
<defs>
<clipPath id="clip0_109_10">
<rect width="57.9279" height="61.8807" fill="white"/>
</clipPath>
</defs>
</svg>
