<svg width="62" height="62" viewBox="0 0 62 62" fill="none" xmlns="http://www.w3.org/2000/svg">
<g clip-path="url(#clip0_109_11)">
<path d="M49.0833 0H12.9167C5.78408 0 0 5.78408 0 12.9167V49.0833C0 56.2159 5.78408 62 12.9167 62H49.0833C56.2185 62 62 56.2159 62 49.0833V12.9167C62 5.78408 56.2185 0 49.0833 0ZM20.6667 49.0833H12.9167V20.6667H20.6667V49.0833ZM16.7917 17.391C14.2962 17.391 12.2708 15.3502 12.2708 12.834C12.2708 10.3178 14.2962 8.277 16.7917 8.277C19.2872 8.277 21.3125 10.3178 21.3125 12.834C21.3125 15.3502 19.2897 17.391 16.7917 17.391ZM51.6667 49.0833H43.9167V34.6063C43.9167 25.9057 33.5833 26.5644 33.5833 34.6063V49.0833H25.8333V20.6667H33.5833V25.2263C37.1897 18.5458 51.6667 18.0523 51.6667 31.6226V49.0833Z" fill="white"/>
</g>
<defs>
<clipPath id="clip0_109_11">
<rect width="62" height="62" fill="white"/>
</clipPath>
</defs>
</svg>
