<svg width="47" height="47" viewBox="0 0 47 47" fill="none" xmlns="http://www.w3.org/2000/svg">
<path d="M34.7871 4H12.215C7.76349 4 4.15356 7.60992 4.15356 12.0615V34.6336C4.15356 39.0851 7.76349 42.695 12.215 42.695H34.7871C39.2403 42.695 42.8486 39.0851 42.8486 34.6336V12.0615C42.8486 7.60992 39.2403 4 34.7871 4ZM17.0519 34.6336H12.215V16.8983H17.0519V34.6336ZM14.6335 14.854C13.076 14.854 11.812 13.5802 11.812 12.0099C11.812 10.4395 13.076 9.16579 14.6335 9.16579C16.1909 9.16579 17.455 10.4395 17.455 12.0099C17.455 13.5802 16.1926 14.854 14.6335 14.854ZM36.3994 34.6336H31.5625V25.5983C31.5625 20.1681 25.1134 20.5792 25.1134 25.5983V34.6336H20.2765V16.8983H25.1134V19.744C27.3641 15.5747 36.3994 15.2667 36.3994 23.7361V34.6336Z" fill="white"/>
</svg>
