<svg width="73" height="73" viewBox="0 0 73 73" fill="none" xmlns="http://www.w3.org/2000/svg">
<rect width="73" height="73" rx="36.5" fill="#01376B"/>
<path d="M24.2652 37.3732L20.0896 41.6072V46.98H17.9288V26.54H20.0896V38.8916L32.0908 26.54H34.5728L25.7252 35.7964L35.186 46.98H32.6164L24.2652 37.3732ZM47.6818 26.3648C50.1346 26.3648 52.052 27.0948 53.4342 28.5548C54.8358 30.0148 55.5366 32.0977 55.5366 34.8036V46.98H53.3758V34.862C53.3758 32.7012 52.8404 31.066 51.7698 29.9564C50.6991 28.8468 49.2002 28.292 47.273 28.292C45.2484 28.292 43.6716 28.8857 42.5426 30.0732C41.4135 31.2412 40.849 33.0029 40.849 35.3584V46.98H38.6882V26.54H40.7614V29.9856C42.0656 27.5717 44.3724 26.3648 47.6818 26.3648Z" fill="#F56E6C"/>
</svg>
